#!OML:ASF X:\für Bonn\!DataBase\2005_08_11_Bastian_Final\c3d\Bastian.ASF
:FULLY-SPECIFIED
:DEGREES
93
root -15.6703 16.9239 -16.9351 167.076 123.143 -555.874
lowerback 15.2138 0.732659 10.9126
upperback 6.94115 2.86564 4.24002
thorax -0.787597 1.72159 -2.0877
lowerneck -13.6758 -1.61028 -7.49018
upperneck -3.21066 -0.90041 2.08265
head 1.37902 -0.271378 1.9334
rclavicle -8.22969e-014 2.62396e-014
rhumerus -29.157 24.5357 -84.0931
rradius 104.655
rwrist 7.94778
rhand -17.1079 19.6309
rfingers 7.12502
rthumb 9.1312 -10.1514
lclavicle -8.22969e-014 2.62396e-014
lhumerus -52.094 -28.8942 97.8115
lradius 65.4416
lwrist 20.9959
lhand -13.3244 -7.2967
lfingers 7.12502
lthumb 12.7805 22.2921
rfemur 2.71353 -4.98913 29.4139
rtibia 33.9595
rfoot -27.0504 -2.05997
rtoes -18.1357
lfemur -43.3646 4.80275 -15.4362
ltibia 88.7043
lfoot -11.2083 -8.52023
ltoes -26.6563
94
root -15.4292 17.0351 -16.7312 167.36 122.425 -555.553
lowerback 14.7031 0.940432 10.3597
upperback 6.81908 2.98488 4.06862
thorax -0.660093 1.76924 -1.96713
lowerneck -13.7065 -1.72784 -7.22108
upperneck -2.98203 -1.0958 2.01609
head 1.46593 -0.378772 1.85327
rclavicle -3.89618e-014 -1.66979e-014
rhumerus -29.6277 24.6901 -84.4397
rradius 106.34
rwrist 8.15681
rhand -17.4546 19.9401
rfingers 7.12502
rthumb 8.79664 -9.85658
lclavicle -3.89618e-014 -1.66979e-014
lhumerus -52.605 -29.0578 97.4364
lradius 65.5768
lwrist 20.812
lhand -13.0362 -7.98827
lfingers 7.12502
lthumb 13.0583 21.583
rfemur 5.15432 -4.11787 29.6046
rtibia 31.0385
rfoot -25.0772 -3.07419
rtoes -18.7008
lfemur -43.6011 4.21435 -16.5158
ltibia 85.8453
lfoot -11.5784 -7.81505
ltoes -26.9224
95
root -15.1859 17.1509 -16.5306 167.723 121.859 -555.2
lowerback 14.2257 1.19405 9.84343
upperback 6.68986 3.17906 3.87479
thorax -0.546205 1.85374 -1.89892
lowerneck -13.8607 -1.86825 -6.91497
upperneck -2.67268 -1.31719 1.92233
head 1.60123 -0.500824 1.75669
rclavicle -5.1684e-014 -8.98507e-014
rhumerus -30.1949 24.8244 -84.7546
rradius 107.74
rwrist 8.40609
rhand -17.8973 20.3081
rfingers 7.12502
rthumb 8.36944 -9.50612
lclavicle -5.1684e-014 -8.98507e-014
lhumerus -53.1511 -29.203 97.0337
lradius 65.7693
lwrist 20.6987
lhand -12.7009 -8.90298
lfingers 7.12502
lthumb 13.3815 20.6473
rfemur 7.37504 -3.28705 29.774
rtibia 28.3612
rfoot -22.7069 -3.90891
rtoes -20.2343
lfemur -43.6658 3.8657 -17.5827
ltibia 82.7182
lfoot -12.0062 -6.93298
ltoes -28.2312
96
root -14.943 17.2586 -16.3335 168.055 121.342 -554.915
lowerback 13.8073 1.44666 9.41027
upperback 6.51778 3.3979 3.67096
thorax -0.500972 1.94794 -1.89069
lowerneck -14.0151 -2.00906 -6.63126
upperneck -2.32808 -1.53896 1.88495
head 1.74939 -0.621848 1.68246
rclavicle -3.29983e-014 2.22639e-014
rhumerus -30.8586 24.9575 -85.1137
rradius 109.021
rwrist 8.58728
rhand -18.2812 20.567
rfingers 7.12502
rthumb 7.99894 -9.26164
lclavicle -3.29983e-014 2.22639e-014
lhumerus -53.8228 -29.3342 96.6933
lradius 66.0861
lwrist 20.7562
lhand -12.3069 -9.80756
lfingers 7.12502
lthumb 13.7613 19.7173
rfemur 9.31543 -3.37368 29.6196
rtibia 26.0689
rfoot -20.2008 -3.62022
rtoes -22.1171
lfemur -43.5757 3.61773 -18.5956
ltibia 79.369
lfoot -12.3308 -6.04379
ltoes -29.7426
97
root -14.6979 17.3653 -16.1368 168.39 120.845 -554.66
lowerback 13.3693 1.68461 9.01804
upperback 6.35269 3.60423 3.46724
thorax -0.43599 2.03821 -1.89903
lowerneck -14.1776 -2.15556 -6.42695
upperneck -2.02671 -1.75618 1.87769
head 1.88606 -0.737383 1.63185
rclavicle 6.55989e-015 -2.94201e-014
rhumerus -31.5038 25.0903 -85.5226
rradius 110.362
rwrist 8.62091
rhand -18.3878 20.6002
rfingers 7.12502
rthumb 7.89603 -9.23232
lclavicle 6.55989e-015 -2.94201e-014
lhumerus -54.4381 -29.437 96.3713
lradius 66.46
lwrist 21.0083
lhand -11.91 -10.5637
lfingers 7.12502
lthumb 14.1437 18.9349
rfemur 10.9681 -3.54782 29.4103
rtibia 24.2171
rfoot -17.6606 -3.06227
rtoes -23.7369
lfemur -43.3256 3.4784 -19.576
ltibia 75.7953
lfoot -12.5465 -5.31148
ltoes -31.0771
98
root -14.451 17.4671 -15.9398 168.68 120.392 -554.435
lowerback 12.9369 1.89663 8.63146
upperback 6.20705 3.78232 3.28271
thorax -0.356917 2.11603 -1.88388
lowerneck -14.4072 -2.28939 -6.32502
upperneck -1.65557 -1.93835 1.91564
head 2.05989 -0.83435 1.61655
rclavicle -1.74931e-014 1.19271e-014
rhumerus -32.0958 25.2912 -85.9762
rradius 111.448
rwrist 8.66532
rhand -18.4792 20.6541
rfingers 7.12502
rthumb 7.80788 -9.18172
lclavicle -1.74931e-014 1.19271e-014
lhumerus -54.994 -29.3781 96.077
lradius 66.8667
lwrist 21.4135
lhand -11.5308 -11.037
lfingers 7.12502
lthumb 14.5091 18.4357
rfemur 12.3735 -3.83663 29.1254
rtibia 22.8453
rfoot -15.1628 -2.21159
rtoes -25.1276
lfemur -42.8672 3.41949 -20.4963
ltibia 72.0385
lfoot -12.7183 -4.84298
ltoes -32.0518
